<svg xmlns="http://www.w3.org/2000/svg" version="1.1" xmlns:xlink="http://www.w3.org/1999/xlink" xmlns:svgjs="http://svgjs.dev/svgjs" width="100%" height="100%" viewBox="0 0 1000 600"><rect width="1000" height="600" x="0" y="0" fill="#191919"/><g><rect width="333.3333333333333" height="333.3333333333333" rx="13.333333333333334" ry="13.333333333333334" y="196.46144821203373" fill="#b88746" transform="matrix(0.7174044251849587,0,0,0.7174044251849586,0,39.49027584755373)" x="174.2392425537109"/><path d="M258.54476447889795 438.1281163669831L258.54476447889795 438.1281163669831Q255.21207503543172 438.1281163669831 253.24144127755608 436.56320132396417Q251.2418276114764 434.99828628094525 250.95202852943586 432.39009454258047Q250.63324953919127 429.7819028042156 252.08224494939392 426.4492133607495L252.08224494939392 426.4492133607495L309.46246319342004 295.83676708507994Q311.34615722668354 291.66366030369625 313.9543489650483 289.895885903249Q316.5625407034132 288.1281115028017 319.69237078945093 288.1281115028017L319.69237078945093 288.1281115028017Q322.82220087548876 288.1281115028017 325.43039261385354 289.895885903249Q328.03858435221844 291.66366030369625 329.7194190280535 295.83676708507994L329.7194190280535 295.83676708507994L387.302496629508 426.4492133607495Q388.954351397139 429.7819028042156 388.6645523150985 432.5060141753966Q388.3457733248539 435.23012554657765 386.4620792915904 436.6791209567804Q384.578385258327 438.1281163669831 381.2456958148608 438.1281163669831L381.2456958148608 438.1281163669831Q377.4783077483338 438.1281163669831 375.1888950002136 436.1574826091074Q372.8994822520933 434.1868488512318 371.45048684189067 430.4194607847049L371.45048684189067 430.4194607847049L356.0041957691301 394.7451937855148L364.3504093318975 399.12115992432695L274.6286135321476 399.12115992432695L283.17768645234344 394.7451937855148L267.9342547370113 430.4194607847049Q266.07954061195187 434.3897082086601 263.99298722126 436.27340224192363Q261.90643383056806 438.1281163669831 258.54476447889795 438.1281163669831ZM319.8952301468794 309.60222348200534L319.4895114320226 309.60222348200534L285.9017978235245 388.6883929708676L280.88827370422325 384.71814554691224L358.09074915982194 384.71814554691224L353.4829437553774 388.6883929708676L319.8952301468794 309.60222348200534ZM422.3392056482088 438.1281163669831L422.3392056482088 438.1281163669831Q418.166098866825 438.1281163669831 415.99260575152107 435.7517638942507Q413.79013272801296 433.34643151331426 413.79013272801296 429.17332473193045L413.79013272801296 429.17332473193045L413.79013272801296 297.08290313785426Q413.79013272801296 292.7069369990421 415.99260575152107 290.41752425092193Q418.166098866825 288.1281115028017 422.3392056482088 288.1281115028017L422.3392056482088 288.1281115028017Q426.5123124295925 288.1281115028017 428.7147854531006 290.41752425092193Q430.9172584766086 292.7069369990421 430.9172584766086 297.08290313785426L430.9172584766086 297.08290313785426L430.9172584766086 429.17332473193045Q430.9172584766086 433.34643151331426 428.83070508591675 435.7517638942507Q426.7441516952249 438.1281163669831 422.3392056482088 438.1281163669831Z " fill="#191919" transform="matrix(0.7174044251849587,0,0,0.7174044251849586,0,39.49027584755373)"/><path d="M678.5250444482856 436.23159372214315L600.3593177039335 436.23159372214315Q595.7493196353976 436.23159372214315 593.327611789268 433.80988587601354Q590.9059039431384 431.38817802988393 590.9059039431384 426.77817996134803L590.9059039431384 426.77817996134803L590.9059039431384 297.5815252304815Q590.9059039431384 292.97152716194563 593.327611789268 290.549819315816Q595.7493196353976 288.1281114696864 600.3593177039335 288.1281114696864L600.3593177039335 288.1281114696864L678.5250444482856 288.1281114696864Q682.0846632100664 288.1281114696864 683.9811814028186 290.02462966243854Q685.8776995955707 291.9211478551906 685.8776995955707 295.2765261962136L685.8776995955707 295.2765261962136Q685.8776995955707 298.8361449579944 683.9811814028186 300.7326631507466Q682.0846632100664 302.62918134349866 678.5250444482856 302.62918134349866L678.5250444482856 302.62918134349866L607.7119728512185 302.62918134349866L607.7119728512185 353.8935269537363L674.1192868005077 353.8935269537363Q677.6789055622885 353.8935269537363 679.5754237550406 355.67333633462675Q681.4719419477927 357.4531457155172 681.4719419477927 361.01276447729805L681.4719419477927 361.01276447729805Q681.4719419477927 364.60156044204433 679.5754237550406 366.4980786347965Q677.6789055622885 368.3654196245831 674.1192868005077 368.3654196245831L674.1192868005077 368.3654196245831L607.7119728512185 368.3654196245831L607.7119728512185 421.73052384833085L678.5250444482856 421.73052384833085Q682.0846632100664 421.73052384833085 683.9811814028186 423.6270420410829Q685.8776995955707 425.5235602338351 685.8776995955707 428.87893857485795L685.8776995955707 428.87893857485795Q685.8776995955707 432.4385573366389 683.9811814028186 434.33507552939096Q682.0846632100664 436.23159372214315 678.5250444482856 436.23159372214315L678.5250444482856 436.23159372214315ZM719.4898374117311 437.69045387041393L719.4898374117311 437.69045387041393Q715.288320184711 437.69045387041393 713.1875615712011 435.38545483614604Q711.086802957691 433.08045580187803 711.086802957691 428.87893857485795L711.086802957691 428.87893857485795L711.086802957691 341.28897527267617Q711.086802957691 337.0874580456561 713.1875615712011 334.86999062028445Q715.288320184711 332.6525231949127 719.2855969909731 332.6525231949127L719.2855969909731 332.6525231949127Q723.2536965942699 332.6525231949127 725.4711640196416 334.86999062028445Q727.6886314450132 337.0874580456561 727.6886314450132 341.28897527267617L727.6886314450132 341.28897527267617L727.6886314450132 359.3496639082693L725.3544552077799 356.8112472502781Q729.7893900585233 344.64435361369914 739.7679934726959 338.4296093820653Q749.7465968868685 332.2440423533969 762.7596294094444 332.2440423533969L762.7596294094444 332.2440423533969Q774.9557002489888 332.2440423533969 783.0377854704093 336.6498000011749Q791.1198706918298 341.05555764895286 795.1171474980919 349.98378175637043Q799.1144243043541 358.912005863788 799.1144243043541 372.5669368516032L799.1144243043541 372.5669368516032L799.1144243043541 428.87893857485795Q799.1144243043541 433.08045580187803 796.8969568789823 435.38545483614604Q794.6794894536106 437.69045387041393 790.7113898503139 437.69045387041393L790.7113898503139 437.69045387041393Q786.5098726232939 437.69045387041393 784.2924051979222 435.38545483614604Q782.0749377725506 433.08045580187803 782.0749377725506 428.87893857485795L782.0749377725506 428.87893857485795L782.0749377725506 373.61731615835816Q782.0749377725506 359.3496639082693 776.5312692091213 352.7264388351196Q770.9584234427266 346.10321376197004 758.7623526031823 346.10321376197004L758.7623526031823 346.10321376197004Q744.6989407738513 346.10321376197004 736.3834379287075 354.82719744862965Q728.0971122865291 363.55118113528937 728.0971122865291 378.05225100910155L728.0971122865291 378.05225100910155L728.0971122865291 428.87893857485795Q728.0971122865291 437.69045387041393 719.4898374117311 437.69045387041393ZM871.3571788467266 438.1281119148952L871.3571788467266 438.1281119148952Q859.3945256309055 438.1281119148952 851.3124404094851 433.80988587601354Q843.2303551880646 429.5208370400972 839.2330783818024 421.2053341949533Q835.2358015755403 412.91900855277487 835.2358015755403 400.92717813398855L835.2358015755403 400.92717813398855L835.2358015755403 347.35783348948297L821.1723897462093 347.35783348948297Q817.583593781463 347.35783348948297 815.687075588711 345.5780241085925Q813.8197345989242 343.79821472770203 813.8197345989242 340.64707680743703L813.8197345989242 340.64707680743703Q813.8197345989242 337.4959388871719 815.687075588711 335.8036611151778Q817.583593781463 334.14056054614906 821.1723897462093 334.14056054614906L821.1723897462093 334.14056054614906L835.2358015755403 334.14056054614906L835.2358015755403 309.98183649078373Q835.2358015755403 305.78031926376366 837.5408006098082 303.562851838392Q839.8457996440761 301.3745616159857 843.8430764503383 301.3745616159857L843.8430764503383 301.3745616159857Q847.8403532566003 301.3745616159857 850.0578206819721 303.562851838392Q852.2461109043784 305.78031926376366 852.2461109043784 309.98183649078373L852.2461109043784 309.98183649078373L852.2461109043784 334.14056054614906L878.7098339940117 334.14056054614906Q882.2986299587578 334.14056054614906 884.19514815151 335.8036611151778Q886.0624891412967 337.4959388871719 886.0624891412967 340.64707680743703L886.0624891412967 340.64707680743703Q886.0624891412967 343.79821472770203 884.19514815151 345.5780241085925Q882.2986299587578 347.35783348948297 878.7098339940117 347.35783348948297L878.7098339940117 347.35783348948297L852.2461109043784 347.35783348948297L852.2461109043784 399.2640775649598Q852.2461109043784 411.22673078078077 857.2937670173956 417.4414750124145Q862.3414231304127 423.6270420410829 873.6913550839599 423.6270420410829L873.6913550839599 423.6270420410829Q877.6594546872566 423.6270420410829 880.5188205778675 422.7809031550859Q883.3490092655129 421.9347642690888 885.2455274582651 421.9347642690888L885.2455274582651 421.9347642690888Q887.1128684480517 421.73052384833085 888.3966653785301 423.2185611995671Q889.651285106043 424.677421347838 889.651285106043 428.2370401096188L889.651285106043 428.2370401096188Q889.651285106043 430.77545676761014 888.6884374081842 432.8762153811202Q887.754766913291 434.9769739946302 885.4497678790229 435.8231128806273L885.4497678790229 435.8231128806273Q882.9113512210317 436.64007456365897 878.8265428058733 437.3986818407598Q874.741734390715 438.1281119148952 871.3571788467266 438.1281119148952ZM948.8810071258395 438.1281119148952L948.8810071258395 438.1281119148952Q932.7168366829985 438.1281119148952 921.0459554968317 431.7091272625035Q909.4042515136302 425.31931981307713 902.9852668612386 413.53172981504866Q896.5662822088468 401.77331701998565 896.5662822088468 385.40490615638674L896.5662822088468 385.40490615638674Q896.5662822088468 369.4157989313382 902.8685580493768 357.5698545273788Q909.1708338899069 345.6947329204541 920.1998166108347 338.9547990354428Q931.2287993317623 332.2440423533969 945.7298692055745 332.2440423533969L945.7298692055745 332.2440423533969Q956.0294218523667 332.2440423533969 964.2282158856489 335.71612950628156Q972.4270099189309 339.18821665916613 978.2040961060836 345.6947329204541Q983.9811822932361 352.2012491817422 987.0156114016395 361.45042252177933Q990.0500405100429 370.6995958618165 990.0500405100429 382.25376823612163L990.0500405100429 382.25376823612163Q990.0500405100429 385.6091465771446 988.1826995202562 387.1847155372771Q986.2861813275041 388.7602844974097 982.6973853627578 388.7602844974097L982.6973853627578 388.7602844974097L909.6084919343882 388.7602844974097L909.6084919343882 377.6145929646204L978.729285759461 377.6145929646204L975.3447302154727 380.35725004336956Q975.3447302154727 369.0073180898224 971.9893518744498 361.12947328915976Q968.6339735334268 353.25162848849715 962.2149888810352 349.05011126147707Q955.8251814316088 344.8485940344571 946.1675272500557 344.8485940344571L946.1675272500557 344.8485940344571Q935.4303165587824 344.8485940344571 927.9901298026009 349.7795413356126Q920.5207658434542 354.71048863676805 916.7569066609153 363.43447232342766Q912.9638702754112 372.1584560100874 912.9638702754112 383.71262838439253L912.9638702754112 383.71262838439253L912.9638702754112 384.96724811190546Q912.9638702754112 404.31173367797686 922.3005752243446 414.37786870104577Q931.6664573762434 424.47318092708 948.8810071258395 424.47318092708L948.8810071258395 424.47318092708Q956.0294218523667 424.47318092708 963.0611277670321 422.57666273432795Q970.0928336816976 420.6801445415759 976.832767566709 416.27438689379784L976.832767566709 416.27438689379784Q979.779665066216 414.37786870104577 982.1721957093803 414.4945775129075Q984.5939035555099 414.58210912180374 986.0819409067461 415.95343766117827Q987.540801055017 417.3247662005529 988.0659907083946 419.30881600220124Q988.591180361772 421.322043006815 987.6575098668786 423.6270420410829Q986.6946621690199 425.9320410753509 983.9811822932361 427.62431884734514L983.9811822932361 427.62431884734514Q977.0370079874668 432.6719749603622 967.5835942266718 435.38545483614604Q958.1301804658767 438.1281119148952 948.8810071258395 438.1281119148952ZM1023.2536974846873 437.69045387041393L1023.2536974846873 437.69045387041393Q1019.0521802576674 437.69045387041393 1016.8347128322957 435.38545483614604Q1014.6464226098894 433.08045580187803 1014.6464226098894 428.87893857485795L1014.6464226098894 428.87893857485795L1014.6464226098894 341.28897527267617Q1014.6464226098894 337.0874580456561 1016.7471812233994 334.86999062028445Q1018.8479398369095 332.6525231949127 1022.8452166431716 332.6525231949127L1022.8452166431716 332.6525231949127Q1026.8133162464683 332.6525231949127 1029.0307836718398 334.86999062028445Q1031.2482510972118 337.0874580456561 1031.2482510972118 341.28897527267617L1031.2482510972118 341.28897527267617L1031.2482510972118 358.29928460151433L1029.1474924837016 358.29928460151433Q1032.5028708247246 345.89897334121207 1041.9562845855198 339.18821665916613Q1051.409698346315 332.44828277415485 1065.2688697548879 332.039801932639L1065.2688697548879 332.039801932639Q1068.420007675153 331.83556151188105 1070.316525867905 333.41113047201355Q1072.213044060657 334.98669943214605 1072.4172844814152 338.75055861468496L1072.4172844814152 338.75055861468496Q1072.621524902173 342.33935457943124 1070.725006709421 344.44011319294117Q1068.828488516669 346.5408718064512 1064.860388913372 346.94935264796703L1064.860388913372 346.94935264796703L1061.4758333693835 347.35783348948297Q1047.2081811192947 348.64163041996125 1039.53457673939 356.51947522062386Q1031.8609723594855 364.3973200212865 1031.8609723594855 378.05225100910155L1031.8609723594855 378.05225100910155L1031.8609723594855 428.87893857485795Q1031.8609723594855 433.08045580187803 1029.6726821370794 435.38545483614604Q1027.4552147117074 437.69045387041393 1023.2536974846873 437.69045387041393ZM1120.9389730129037 438.1281119148952L1120.9389730129037 438.1281119148952Q1110.4351799453534 438.1281119148952 1102.148854303175 434.0141262967714Q1093.8333514580313 429.92931788161303 1089.0191129687373 422.7809031550859Q1084.1756972764783 415.6324884285587 1084.1756972764783 406.8209731330027L1084.1756972764783 406.8209731330027Q1084.1756972764783 395.47104117945554 1089.9527834636306 388.96452491816757Q1095.7298696507833 382.4580086568796 1109.0638514059788 379.7153515781304Q1122.3978331611743 377.0018717023466 1145.5061779097846 377.0018717023466L1145.5061779097846 377.0018717023466L1154.9595916705798 377.0018717023466L1154.9595916705798 388.11838603217046L1145.7395955335078 388.11838603217046Q1128.7001090017043 388.11838603217046 1118.9549232112554 389.69395499230296Q1109.1805602178406 391.2695239524356 1105.2999922234403 395.0625603379397Q1101.3902470260741 398.8264195204785 1101.3902470260741 405.77059382624776L1101.3902470260741 405.77059382624776Q1101.3902470260741 414.37786870104577 1107.40075083695 419.8340056555788Q1113.3820774448604 425.31931981307713 1123.6816300916526 425.31931981307713L1123.6816300916526 425.31931981307713Q1132.0846645456927 425.31931981307713 1138.474471995119 421.322043006815Q1144.893456647511 417.3247662005529 1148.5697842211534 410.38059189478366Q1152.246111794796 403.46559479197975 1152.246111794796 394.4206618727006L1152.246111794796 394.4206618727006L1152.246111794796 370.46617823809316Q1152.246111794796 357.4531457155172 1146.994215261021 351.67605952836465Q1141.7423187272461 345.89897334121207 1129.7504883084594 345.89897334121207L1129.7504883084594 345.89897334121207Q1122.3978331611743 345.89897334121207 1115.0451780138892 347.79549153396414Q1107.6925228666041 349.6920097267163 1099.5229060362876 353.8935269537363L1099.5229060362876 353.8935269537363Q1096.5760085367801 355.3523871020072 1094.4752499232704 354.82719744862965Q1092.3744913097603 354.3020077952522 1091.1198715822475 352.609730023258Q1089.8360746517692 350.94662945422925 1089.631834231011 348.7291620288575Q1089.4275938102533 346.5408718064512 1090.5946819288697 344.44011319294117Q1091.7325928445212 342.33935457943124 1094.2710095025122 341.05555764895286L1094.2710095025122 341.05555764895286Q1103.4910056395843 336.44555958041695 1112.5359385588636 334.3448009669069Q1121.5808714781429 332.2440423533969 1129.7504883084594 332.2440423533969L1129.7504883084594 332.2440423533969Q1142.996938454759 332.2440423533969 1151.6042133295568 336.56226839227867Q1160.2114882043547 340.8513172281949 1164.413005431375 349.5753009148546Q1168.614522658395 358.29928460151433 1168.614522658395 371.9542155893294L1168.614522658395 371.9542155893294L1168.614522658395 428.87893857485795Q1168.614522658395 433.08045580187803 1166.6304728567466 435.38545483614604Q1164.6464230550982 437.69045387041393 1160.8533866695939 437.69045387041393L1160.8533866695939 437.69045387041393Q1156.8561098633318 437.69045387041393 1154.7553512498216 435.38545483614604Q1152.654592636312 433.08045580187803 1152.654592636312 428.87893857485795L1152.654592636312 428.87893857485795L1152.654592636312 412.4813505082937L1154.5511108290639 412.4813505082937Q1152.8588330570697 420.4759041208179 1148.132126176672 426.1362814961088Q1143.4054192962749 431.8258360743651 1136.4904221934707 434.9769739946302Q1129.5462478877016 438.1281119148952 1120.9389730129037 438.1281119148952ZM1208.5289363150855 437.2819730288981L1208.5289363150855 437.2819730288981Q1204.3274190880652 437.2819730288981 1202.2266604745555 434.8602651827685Q1200.1259018610453 432.4385573366389 1200.1259018610453 428.03279968886096L1200.1259018610453 428.03279968886096L1200.1259018610453 342.1059369557078Q1200.1259018610453 337.7001793079299 1202.2266604745555 335.395180273662Q1204.3274190880652 333.090181239394 1208.5289363150855 333.090181239394L1208.5289363150855 333.090181239394Q1212.5262131213476 333.090181239394 1214.8312121556155 335.395180273662Q1217.1653883928489 337.7001793079299 1217.1653883928489 342.1059369557078L1217.1653883928489 342.1059369557078L1217.1653883928489 428.03279968886096Q1217.1653883928489 432.4385573366389 1214.9479209674769 434.8602651827685Q1212.7304535421054 437.2819730288981 1208.5289363150855 437.2819730288981ZM1208.5289363150855 309.54417844630245L1208.5289363150855 309.54417844630245Q1203.2770397813101 309.54417844630245 1200.3593194847685 306.713989758657Q1197.4124219852615 303.8838010710116 1197.4124219852615 299.0403853787524L1197.4124219852615 299.0403853787524Q1197.4124219852615 294.02190646870065 1200.3593194847685 291.3959582018131Q1203.2770397813101 288.7700099349256 1208.5289363150855 288.7700099349256L1208.5289363150855 288.7700099349256Q1214.0142504725836 288.7700099349256 1216.8444391602293 291.3959582018131Q1219.6746278478745 294.02190646870065 1219.6746278478745 299.0403853787524L1219.6746278478745 299.0403853787524Q1219.6746278478745 303.8838010710116 1216.8444391602293 306.713989758657Q1214.0142504725836 309.54417844630245 1208.5289363150855 309.54417844630245Z " fill="#b88746" transform="matrix(0.7174044251849587,0,0,0.7174044251849586,0,39.49027584755373)"/></g></svg>